<?xml version="1.0" standalone="no"?>
<!DOCTYPE svg PUBLIC "-//W3C//DTD SVG 20010904//EN"
 "http://www.w3.org/TR/2001/REC-SVG-20010904/DTD/svg10.dtd">
<svg version="1.0" xmlns="http://www.w3.org/2000/svg"
 width="834.000000pt" height="1174.000000pt" viewBox="0 0 834.000000 1174.000000"
 preserveAspectRatio="xMidYMid meet">

<g transform="translate(0.000000,1174.000000) scale(0.100000,-0.100000)"
fill="#000000" stroke="none">
<path d="M1762 1378 c3 -891 5 -978 21 -1033 27 -93 63 -159 111 -203 100 -92
212 -122 456 -122 l160 0 0 163 0 164 -81 11 c-109 16 -157 43 -189 107 l-25
50 -3 918 -3 917 -225 0 -225 0 3 -972z"/>
<path d="M6850 1190 l0 -1160 188 0 188 0 34 70 c19 39 37 70 42 70 4 0 39
-21 78 -46 115 -74 213 -105 351 -112 255 -11 404 67 499 261 79 162 106 338
97 642 -16 535 -160 748 -522 772 -139 9 -253 -20 -492 -124 -10 -4 -13 78
-13 391 l0 396 -225 0 -225 0 0 -1160z m855 117 c117 -34 175 -185 175 -455 0
-175 -24 -288 -81 -376 -22 -36 -42 -53 -85 -73 -52 -23 -65 -25 -153 -21 -77
4 -113 12 -178 37 l-83 32 0 393 0 393 69 31 c134 60 225 71 336 39z"/>
<path d="M6056 2314 c-13 -13 -16 -45 -16 -198 0 -128 4 -186 12 -194 9 -9 73
-12 225 -12 200 0 213 1 223 19 6 11 10 91 10 188 0 136 -3 173 -16 191 -15
22 -20 22 -219 22 -172 0 -206 -2 -219 -16z"/>
<path d="M356 2264 c-123 -30 -234 -110 -288 -211 -59 -108 -58 -82 -58 -1095
l0 -928 225 0 225 0 0 429 0 429 93 6 c50 3 225 8 387 11 162 3 321 8 353 11
l57 6 0 173 0 174 -52 5 c-29 3 -183 8 -343 11 -159 3 -336 8 -393 11 l-103 6
3 229 c3 212 4 230 24 255 31 42 67 65 115 75 24 4 236 8 472 9 l427 0 -2 188
-3 187 -70 7 c-313 30 -963 38 -1069 12z"/>
<path d="M3230 1679 c-139 -8 -204 -18 -362 -55 l-108 -26 0 -133 0 -134 338
-3 c290 -3 343 -6 382 -21 90 -35 118 -84 127 -217 l6 -87 -284 -6 c-306 -6
-362 -13 -465 -64 -68 -33 -147 -116 -182 -190 -26 -57 -27 -63 -27 -248 0
-162 3 -197 19 -240 43 -114 139 -199 263 -232 80 -21 260 -13 368 17 91 24
232 88 282 126 19 14 37 23 40 20 4 -3 21 -39 38 -79 l31 -72 183 -3 182 -2
-3 627 c-4 596 -5 631 -24 694 -37 119 -108 210 -202 258 -85 44 -321 85 -447
79 -16 0 -86 -4 -155 -9z m380 -1088 l0 -188 -43 -17 c-97 -37 -241 -68 -295
-62 -123 11 -172 68 -172 201 0 127 47 197 151 225 38 10 204 26 307 29 l52 1
0 -189z"/>
<path d="M4526 1265 l276 -396 -73 -112 c-40 -62 -164 -250 -276 -420 l-203
-307 232 2 232 3 156 247 c85 136 158 248 162 248 3 0 84 -112 180 -250 l173
-249 228 -1 c125 0 227 2 227 4 0 3 -121 179 -270 391 -148 213 -270 390 -270
395 0 5 122 193 270 419 149 226 270 413 270 416 0 3 -102 5 -227 5 l-228 0
-159 -256 c-87 -140 -162 -252 -166 -247 -4 4 -85 119 -180 256 l-172 247
-228 0 -229 0 275 -395z"/>
<path d="M6050 845 l0 -815 225 0 225 0 0 815 0 815 -225 0 -225 0 0 -815z"/>
</g>
</svg>
